<svg xmlns="http://www.w3.org/2000/svg" viewBox="0 0 960 515" width="100%" height="100%">
  <defs>
    <linearGradient id="card-bg" x1="0%" y1="0%" x2="100%" y2="100%">
      <stop offset="0%" stop-color="#0A101F" />
      <stop offset="100%" stop-color="#0B1528" />
    </linearGradient>
    <linearGradient id="grad-chunav" x1="0%" y1="0%" x2="100%" y2="100%">
      <stop offset="0%" stop-color="#10B981" />
      <stop offset="100%" stop-color="#059669" />
    </linearGradient>
    <linearGradient id="grad-campus" x1="0%" y1="0%" x2="100%" y2="100%">
      <stop offset="0%" stop-color="#3B82F6" />
      <stop offset="100%" stop-color="#1D4ED8" />
    </linearGradient>
    <linearGradient id="grad-fifa" x1="0%" y1="0%" x2="100%" y2="100%">
      <stop offset="0%" stop-color="#F59E0B" />
      <stop offset="100%" stop-color="#D97706" />
    </linearGradient>
    <linearGradient id="grad-buddy" x1="0%" y1="0%" x2="100%" y2="100%">
      <stop offset="0%" stop-color="#EC4899" />
      <stop offset="100%" stop-color="#BE185D" />
    </linearGradient>
    <linearGradient id="grad-carbon" x1="0%" y1="0%" x2="100%" y2="100%">
      <stop offset="0%" stop-color="#06B6D4" />
      <stop offset="100%" stop-color="#0891B2" />
    </linearGradient>
    <linearGradient id="grad-habit" x1="0%" y1="0%" x2="100%" y2="100%">
      <stop offset="0%" stop-color="#8B5CF6" />
      <stop offset="100%" stop-color="#6D28D9" />
    </linearGradient>
  </defs>

  <!-- Background -->
  <rect width="960" height="515" fill="#0A101F" rx="10" />

  <!-- Terminal Header -->
  <g transform="translate(15, 24)">
    <text x="0" y="0" font-family="monospace" font-size="13" font-weight="bold" fill="#22D3EE" letter-spacing="1.5">PROJECTS.LIST</text>
    <text x="145" y="0" font-family="monospace" font-size="12" fill="#64748B">./projects.sh --all</text>
  </g>

  <!-- ==================== CARD 1: Chunav Saathi ==================== -->
  <g transform="translate(12, 40)">
    <rect width="462" height="142" rx="12" fill="url(#card-bg)" stroke="#1E293B" stroke-width="1.2" />
    
    <!-- Top bar -->
    <circle cx="18" cy="18" r="3" fill="#22D3EE" />
    <text x="27" y="22" font-family="monospace" font-size="11" fill="#64748B">Aryan24a-git/chunav-saathi</text>
    <circle cx="444" cy="18" r="3.5" fill="#10B981" />

    <!-- Project Icon -->
    <rect x="18" y="38" width="38" height="38" rx="10" fill="url(#grad-chunav)" />
    <path d="M30 48 L35 53 L45 43" stroke="#FFFFFF" stroke-width="2.5" stroke-linecap="round" stroke-linejoin="round" fill="none" />
    <path d="M26 62 L48 62" stroke="#FFFFFF" stroke-width="2" stroke-linecap="round" fill="none" />

    <!-- Title & Desc -->
    <text x="66" y="52" font-family="sans-serif" font-size="15" font-weight="bold" fill="#F8FAFC">Chunav Saathi<tspan fill="#A78BFA">_</tspan></text>
    <text x="66" y="69" font-family="sans-serif" font-size="11" fill="#94A3B8">Bilingual AI electoral assistant &amp; interactive guide</text>

    <!-- Tag Pills -->
    <g transform="translate(66, 83)">
      <rect x="0" y="0" width="58" height="19" rx="6" fill="#1E1B4B" stroke="#3730A3" stroke-width="0.8" />
      <text x="29" y="13" font-family="sans-serif" font-size="10" font-weight="bold" fill="#DDD6FE" text-anchor="middle">Node.js</text>

      <rect x="64" y="0" width="68" height="19" rx="6" fill="#1E1B4B" stroke="#3730A3" stroke-width="0.8" />
      <text x="98" y="13" font-family="sans-serif" font-size="10" font-weight="bold" fill="#DDD6FE" text-anchor="middle">Gemini AI</text>

      <rect x="138" y="0" width="70" height="19" rx="6" fill="#1E1B4B" stroke="#3730A3" stroke-width="0.8" />
      <text x="173" y="13" font-family="sans-serif" font-size="10" font-weight="bold" fill="#DDD6FE" text-anchor="middle">Cloud Run</text>
    </g>

    <!-- Footer meta -->
    <text x="66" y="123" font-family="sans-serif" font-size="10" fill="#64748B">&#9733; 1 &nbsp; updated recently</text>

    <!-- Language stats breakdown -->
    <g transform="translate(290, 50)">
      <circle cx="6" cy="5" r="3" fill="#A78BFA" />
      <text x="15" y="8" font-family="sans-serif" font-size="10.5" fill="#CBD5E1">JavaScript 62%</text>

      <circle cx="6" cy="22" r="3" fill="#22D3EE" />
      <text x="15" y="25" font-family="sans-serif" font-size="10.5" fill="#CBD5E1">HTML 28%</text>

      <circle cx="6" cy="39" r="3" fill="#10B981" />
      <text x="15" y="42" font-family="sans-serif" font-size="10.5" fill="#CBD5E1">CSS 10%</text>
    </g>

    <!-- Donut chart -->
    <g transform="translate(415, 72)">
      <circle cx="0" cy="0" r="23" fill="none" stroke="#1E293B" stroke-width="6" />
      <circle cx="0" cy="0" r="23" fill="none" stroke="#A78BFA" stroke-width="6"
              stroke-dasharray="89.6 144.5" stroke-dashoffset="36.1" transform="rotate(-90)" />
      <circle cx="0" cy="0" r="23" fill="none" stroke="#22D3EE" stroke-width="6"
              stroke-dasharray="40.4 144.5" stroke-dashoffset="-53.5" transform="rotate(-90)" />
      <circle cx="0" cy="0" r="23" fill="none" stroke="#10B981" stroke-width="6"
              stroke-dasharray="14.5 144.5" stroke-dashoffset="-93.9" transform="rotate(-90)" />
      <text x="0" y="4" font-family="sans-serif" font-size="11" font-weight="bold" fill="#F8FAFC" text-anchor="middle">62%</text>
    </g>
  </g>

  <!-- ==================== CARD 2: CampusFlow ==================== -->
  <g transform="translate(486, 40)">
    <rect width="462" height="142" rx="12" fill="url(#card-bg)" stroke="#1E293B" stroke-width="1.2" />
    
    <!-- Top bar -->
    <circle cx="18" cy="18" r="3" fill="#22D3EE" />
    <text x="27" y="22" font-family="monospace" font-size="11" fill="#64748B">Aryan24a-git/CampusFlow</text>
    <circle cx="444" cy="18" r="3.5" fill="#10B981" />

    <!-- Project Icon -->
    <rect x="18" y="38" width="38" height="38" rx="10" fill="url(#grad-campus)" />
    <path d="M37 45 L26 51 L37 57 L48 51 Z" stroke="#FFFFFF" stroke-width="2" fill="none" />
    <path d="M29 53 L29 60 Q37 66 45 60 L45 53" stroke="#FFFFFF" stroke-width="2" fill="none" />

    <!-- Title & Desc -->
    <text x="66" y="52" font-family="sans-serif" font-size="15" font-weight="bold" fill="#F8FAFC">CampusFlow<tspan fill="#A78BFA">_</tspan></text>
    <text x="66" y="69" font-family="sans-serif" font-size="11" fill="#94A3B8">Smart schedule &amp; routine tracking for campuses</text>

    <!-- Tag Pills -->
    <g transform="translate(66, 83)">
      <rect x="0" y="0" width="75" height="19" rx="6" fill="#1E1B4B" stroke="#3730A3" stroke-width="0.8" />
      <text x="37.5" y="13" font-family="sans-serif" font-size="10" font-weight="bold" fill="#DDD6FE" text-anchor="middle">TypeScript</text>

      <rect x="81" y="0" width="52" height="19" rx="6" fill="#1E1B4B" stroke="#3730A3" stroke-width="0.8" />
      <text x="107" y="13" font-family="sans-serif" font-size="10" font-weight="bold" fill="#DDD6FE" text-anchor="middle">React</text>

      <rect x="139" y="0" width="58" height="19" rx="6" fill="#1E1B4B" stroke="#3730A3" stroke-width="0.8" />
      <text x="168" y="13" font-family="sans-serif" font-size="10" font-weight="bold" fill="#DDD6FE" text-anchor="middle">Node.js</text>
    </g>

    <!-- Footer meta -->
    <text x="66" y="123" font-family="sans-serif" font-size="10" fill="#64748B">&#9733; 0 &nbsp; updated 2w ago</text>

    <!-- Language stats breakdown -->
    <g transform="translate(290, 50)">
      <circle cx="6" cy="5" r="3" fill="#A78BFA" />
      <text x="15" y="8" font-family="sans-serif" font-size="10.5" fill="#CBD5E1">TypeScript 58%</text>

      <circle cx="6" cy="22" r="3" fill="#22D3EE" />
      <text x="15" y="25" font-family="sans-serif" font-size="10.5" fill="#CBD5E1">CSS 27%</text>

      <circle cx="6" cy="39" r="3" fill="#10B981" />
      <text x="15" y="42" font-family="sans-serif" font-size="10.5" fill="#CBD5E1">HTML 15%</text>
    </g>

    <!-- Donut chart -->
    <g transform="translate(415, 72)">
      <circle cx="0" cy="0" r="23" fill="none" stroke="#1E293B" stroke-width="6" />
      <circle cx="0" cy="0" r="23" fill="none" stroke="#A78BFA" stroke-width="6"
              stroke-dasharray="83.8 144.5" stroke-dashoffset="36.1" transform="rotate(-90)" />
      <circle cx="0" cy="0" r="23" fill="none" stroke="#22D3EE" stroke-width="6"
              stroke-dasharray="39.0 144.5" stroke-dashoffset="-47.7" transform="rotate(-90)" />
      <circle cx="0" cy="0" r="23" fill="none" stroke="#10B981" stroke-width="6"
              stroke-dasharray="21.7 144.5" stroke-dashoffset="-86.7" transform="rotate(-90)" />
      <text x="0" y="4" font-family="sans-serif" font-size="11" font-weight="bold" fill="#F8FAFC" text-anchor="middle">58%</text>
    </g>
  </g>

  <!-- ==================== CARD 3: FIFA-FanConnect ==================== -->
  <g transform="translate(12, 195)">
    <rect width="462" height="142" rx="12" fill="url(#card-bg)" stroke="#1E293B" stroke-width="1.2" />
    
    <!-- Top bar -->
    <circle cx="18" cy="18" r="3" fill="#22D3EE" />
    <text x="27" y="22" font-family="monospace" font-size="11" fill="#64748B">Aryan24a-git/FIFA-FanConnect</text>
    <circle cx="444" cy="18" r="3.5" fill="#10B981" />

    <!-- Project Icon -->
    <rect x="18" y="38" width="38" height="38" rx="10" fill="url(#grad-fifa)" />
    <circle cx="37" cy="57" r="10" stroke="#FFFFFF" stroke-width="2" fill="none" />
    <path d="M37 51 L41 55 L39 60 L35 60 L33 55 Z" stroke="#FFFFFF" stroke-width="1.5" fill="#FFFFFF" />

    <!-- Title & Desc -->
    <text x="66" y="52" font-family="sans-serif" font-size="15" font-weight="bold" fill="#F8FAFC">FIFA FanConnect<tspan fill="#A78BFA">_</tspan></text>
    <text x="66" y="69" font-family="sans-serif" font-size="11" fill="#94A3B8">Interactive hub and trivia app for football fans</text>

    <!-- Tag Pills -->
    <g transform="translate(66, 83)">
      <rect x="0" y="0" width="72" height="19" rx="6" fill="#1E1B4B" stroke="#3730A3" stroke-width="0.8" />
      <text x="36" y="13" font-family="sans-serif" font-size="10" font-weight="bold" fill="#DDD6FE" text-anchor="middle">JavaScript</text>

      <rect x="78" y="0" width="52" height="19" rx="6" fill="#1E1B4B" stroke="#3730A3" stroke-width="0.8" />
      <text x="104" y="13" font-family="sans-serif" font-size="10" font-weight="bold" fill="#DDD6FE" text-anchor="middle">Vercel</text>

      <rect x="136" y="0" width="58" height="19" rx="6" fill="#1E1B4B" stroke="#3730A3" stroke-width="0.8" />
      <text x="165" y="13" font-family="sans-serif" font-size="10" font-weight="bold" fill="#DDD6FE" text-anchor="middle">HTML5</text>
    </g>

    <!-- Footer meta -->
    <text x="66" y="123" font-family="sans-serif" font-size="10" fill="#64748B">&#9733; 0 &nbsp; updated 2mo ago</text>

    <!-- Language stats breakdown -->
    <g transform="translate(290, 50)">
      <circle cx="6" cy="5" r="3" fill="#A78BFA" />
      <text x="15" y="8" font-family="sans-serif" font-size="10.5" fill="#CBD5E1">JavaScript 72%</text>

      <circle cx="6" cy="22" r="3" fill="#22D3EE" />
      <text x="15" y="25" font-family="sans-serif" font-size="10.5" fill="#CBD5E1">HTML 18%</text>

      <circle cx="6" cy="39" r="3" fill="#10B981" />
      <text x="15" y="42" font-family="sans-serif" font-size="10.5" fill="#CBD5E1">CSS 10%</text>
    </g>

    <!-- Donut chart -->
    <g transform="translate(415, 72)">
      <circle cx="0" cy="0" r="23" fill="none" stroke="#1E293B" stroke-width="6" />
      <circle cx="0" cy="0" r="23" fill="none" stroke="#A78BFA" stroke-width="6"
              stroke-dasharray="104.0 144.5" stroke-dashoffset="36.1" transform="rotate(-90)" />
      <circle cx="0" cy="0" r="23" fill="none" stroke="#22D3EE" stroke-width="6"
              stroke-dasharray="26.0 144.5" stroke-dashoffset="-67.9" transform="rotate(-90)" />
      <circle cx="0" cy="0" r="23" fill="none" stroke="#10B981" stroke-width="6"
              stroke-dasharray="14.5 144.5" stroke-dashoffset="-93.9" transform="rotate(-90)" />
      <text x="0" y="4" font-family="sans-serif" font-size="11" font-weight="bold" fill="#F8FAFC" text-anchor="middle">72%</text>
    </g>
  </g>

  <!-- ==================== CARD 4: Buddy-Tracker ==================== -->
  <g transform="translate(486, 195)">
    <rect width="462" height="142" rx="12" fill="url(#card-bg)" stroke="#1E293B" stroke-width="1.2" />
    
    <!-- Top bar -->
    <circle cx="18" cy="18" r="3" fill="#22D3EE" />
    <text x="27" y="22" font-family="monospace" font-size="11" fill="#64748B">Aryan24a-git/Buddy-Tracker</text>
    <circle cx="444" cy="18" r="3.5" fill="#10B981" />

    <!-- Project Icon -->
    <rect x="18" y="38" width="38" height="38" rx="10" fill="url(#grad-buddy)" />
    <circle cx="33" cy="53" r="5" stroke="#FFFFFF" stroke-width="2" fill="none" />
    <circle cx="41" cy="53" r="5" stroke="#FFFFFF" stroke-width="2" fill="none" />
    <path d="M26 66 C26 60 33 60 37 60 C41 60 48 60 48 66" stroke="#FFFFFF" stroke-width="2" fill="none" />

    <!-- Title & Desc -->
    <text x="66" y="52" font-family="sans-serif" font-size="15" font-weight="bold" fill="#F8FAFC">Buddy Tracker<tspan fill="#A78BFA">_</tspan></text>
    <text x="66" y="69" font-family="sans-serif" font-size="11" fill="#94A3B8">Mess &amp; hostel expense manager for roommates</text>

    <!-- Tag Pills -->
    <g transform="translate(66, 83)">
      <rect x="0" y="0" width="58" height="19" rx="6" fill="#1E1B4B" stroke="#3730A3" stroke-width="0.8" />
      <text x="29" y="13" font-family="sans-serif" font-size="10" font-weight="bold" fill="#DDD6FE" text-anchor="middle">Flutter</text>

      <rect x="64" y="0" width="46" height="19" rx="6" fill="#1E1B4B" stroke="#3730A3" stroke-width="0.8" />
      <text x="87" y="13" font-family="sans-serif" font-size="10" font-weight="bold" fill="#DDD6FE" text-anchor="middle">Dart</text>

      <rect x="116" y="0" width="62" height="19" rx="6" fill="#1E1B4B" stroke="#3730A3" stroke-width="0.8" />
      <text x="147" y="13" font-family="sans-serif" font-size="10" font-weight="bold" fill="#DDD6FE" text-anchor="middle">Firebase</text>
    </g>

    <!-- Footer meta -->
    <text x="66" y="123" font-family="sans-serif" font-size="10" fill="#64748B">&#9733; 0 &nbsp; updated 1mo ago</text>

    <!-- Language stats breakdown -->
    <g transform="translate(290, 50)">
      <circle cx="6" cy="5" r="3" fill="#A78BFA" />
      <text x="15" y="8" font-family="sans-serif" font-size="10.5" fill="#CBD5E1">Dart 84%</text>

      <circle cx="6" cy="22" r="3" fill="#22D3EE" />
      <text x="15" y="25" font-family="sans-serif" font-size="10.5" fill="#CBD5E1">C++ 11%</text>

      <circle cx="6" cy="39" r="3" fill="#10B981" />
      <text x="15" y="42" font-family="sans-serif" font-size="10.5" fill="#CBD5E1">CMake 5%</text>
    </g>

    <!-- Donut chart -->
    <g transform="translate(415, 72)">
      <circle cx="0" cy="0" r="23" fill="none" stroke="#1E293B" stroke-width="6" />
      <circle cx="0" cy="0" r="23" fill="none" stroke="#A78BFA" stroke-width="6"
              stroke-dasharray="121.4 144.5" stroke-dashoffset="36.1" transform="rotate(-90)" />
      <circle cx="0" cy="0" r="23" fill="none" stroke="#22D3EE" stroke-width="6"
              stroke-dasharray="15.9 144.5" stroke-dashoffset="-85.3" transform="rotate(-90)" />
      <circle cx="0" cy="0" r="23" fill="none" stroke="#10B981" stroke-width="6"
              stroke-dasharray="7.2 144.5" stroke-dashoffset="-101.2" transform="rotate(-90)" />
      <text x="0" y="4" font-family="sans-serif" font-size="11" font-weight="bold" fill="#F8FAFC" text-anchor="middle">84%</text>
    </g>
  </g>

  <!-- ==================== CARD 5: carbon-saathi ==================== -->
  <g transform="translate(12, 350)">
    <rect width="462" height="142" rx="12" fill="url(#card-bg)" stroke="#1E293B" stroke-width="1.2" />
    
    <!-- Top bar -->
    <circle cx="18" cy="18" r="3" fill="#22D3EE" />
    <text x="27" y="22" font-family="monospace" font-size="11" fill="#64748B">Aryan24a-git/carbon-saathi</text>
    <circle cx="444" cy="18" r="3.5" fill="#10B981" />

    <!-- Project Icon -->
    <rect x="18" y="38" width="38" height="38" rx="10" fill="url(#grad-carbon)" />
    <path d="M44 47 C37 45 28 50 28 62 C39 62 46 55 44 47 Z" stroke="#FFFFFF" stroke-width="2" fill="none" />
    <path d="M28 62 L38 52" stroke="#FFFFFF" stroke-width="2" stroke-linecap="round" fill="none" />

    <!-- Title & Desc -->
    <text x="66" y="52" font-family="sans-serif" font-size="15" font-weight="bold" fill="#F8FAFC">Carbon Saathi<tspan fill="#A78BFA">_</tspan></text>
    <text x="66" y="69" font-family="sans-serif" font-size="11" fill="#94A3B8">Smart carbon footprint calculator &amp; eco actions</text>

    <!-- Tag Pills -->
    <g transform="translate(66, 83)">
      <rect x="0" y="0" width="72" height="19" rx="6" fill="#1E1B4B" stroke="#3730A3" stroke-width="0.8" />
      <text x="36" y="13" font-family="sans-serif" font-size="10" font-weight="bold" fill="#DDD6FE" text-anchor="middle">JavaScript</text>

      <rect x="78" y="0" width="52" height="19" rx="6" fill="#1E1B4B" stroke="#3730A3" stroke-width="0.8" />
      <text x="104" y="13" font-family="sans-serif" font-size="10" font-weight="bold" fill="#DDD6FE" text-anchor="middle">HTML5</text>

      <rect x="136" y="0" width="48" height="19" rx="6" fill="#1E1B4B" stroke="#3730A3" stroke-width="0.8" />
      <text x="160" y="13" font-family="sans-serif" font-size="10" font-weight="bold" fill="#DDD6FE" text-anchor="middle">CSS3</text>
    </g>

    <!-- Footer meta -->
    <text x="66" y="123" font-family="sans-serif" font-size="10" fill="#64748B">&#9733; 0 &nbsp; updated 3mo ago</text>

    <!-- Language stats breakdown -->
    <g transform="translate(290, 50)">
      <circle cx="6" cy="5" r="3" fill="#A78BFA" />
      <text x="15" y="8" font-family="sans-serif" font-size="10.5" fill="#CBD5E1">JavaScript 68%</text>

      <circle cx="6" cy="22" r="3" fill="#22D3EE" />
      <text x="15" y="25" font-family="sans-serif" font-size="10.5" fill="#CBD5E1">CSS 20%</text>

      <circle cx="6" cy="39" r="3" fill="#10B981" />
      <text x="15" y="42" font-family="sans-serif" font-size="10.5" fill="#CBD5E1">HTML 12%</text>
    </g>

    <!-- Donut chart -->
    <g transform="translate(415, 72)">
      <circle cx="0" cy="0" r="23" fill="none" stroke="#1E293B" stroke-width="6" />
      <circle cx="0" cy="0" r="23" fill="none" stroke="#A78BFA" stroke-width="6"
              stroke-dasharray="98.3 144.5" stroke-dashoffset="36.1" transform="rotate(-90)" />
      <circle cx="0" cy="0" r="23" fill="none" stroke="#22D3EE" stroke-width="6"
              stroke-dasharray="28.9 144.5" stroke-dashoffset="-62.2" transform="rotate(-90)" />
      <circle cx="0" cy="0" r="23" fill="none" stroke="#10B981" stroke-width="6"
              stroke-dasharray="17.3 144.5" stroke-dashoffset="-91.1" transform="rotate(-90)" />
      <text x="0" y="4" font-family="sans-serif" font-size="11" font-weight="bold" fill="#F8FAFC" text-anchor="middle">68%</text>
    </g>
  </g>

  <!-- ==================== CARD 6: habit-tracker ==================== -->
  <g transform="translate(486, 350)">
    <rect width="462" height="142" rx="12" fill="url(#card-bg)" stroke="#1E293B" stroke-width="1.2" />
    
    <!-- Top bar -->
    <circle cx="18" cy="18" r="3" fill="#22D3EE" />
    <text x="27" y="22" font-family="monospace" font-size="11" fill="#64748B">Aryan24a-git/habit-tracker</text>
    <circle cx="444" cy="18" r="3.5" fill="#10B981" />

    <!-- Project Icon -->
    <rect x="18" y="38" width="38" height="38" rx="10" fill="url(#grad-habit)" />
    <circle cx="37" cy="57" r="10" stroke="#FFFFFF" stroke-width="2" fill="none" />
    <circle cx="37" cy="57" r="5" stroke="#FFFFFF" stroke-width="1.5" fill="none" />
    <circle cx="37" cy="57" r="1.5" fill="#FFFFFF" />

    <!-- Title & Desc -->
    <text x="66" y="52" font-family="sans-serif" font-size="15" font-weight="bold" fill="#F8FAFC">Habit Tracker<tspan fill="#A78BFA">_</tspan></text>
    <text x="66" y="69" font-family="sans-serif" font-size="11" fill="#94A3B8">Python productivity tool for daily habit building</text>

    <!-- Tag Pills -->
    <g transform="translate(66, 83)">
      <rect x="0" y="0" width="54" height="19" rx="6" fill="#1E1B4B" stroke="#3730A3" stroke-width="0.8" />
      <text x="27" y="13" font-family="sans-serif" font-size="10" font-weight="bold" fill="#DDD6FE" text-anchor="middle">Python</text>

      <rect x="60" y="0" width="50" height="19" rx="6" fill="#1E1B4B" stroke="#3730A3" stroke-width="0.8" />
      <text x="85" y="13" font-family="sans-serif" font-size="10" font-weight="bold" fill="#DDD6FE" text-anchor="middle">SQLite</text>

      <rect x="116" y="0" width="40" height="19" rx="6" fill="#1E1B4B" stroke="#3730A3" stroke-width="0.8" />
      <text x="136" y="13" font-family="sans-serif" font-size="10" font-weight="bold" fill="#DDD6FE" text-anchor="middle">CLI</text>
    </g>

    <!-- Footer meta -->
    <text x="66" y="123" font-family="sans-serif" font-size="10" fill="#64748B">&#9733; 0 &nbsp; updated 4mo ago</text>

    <!-- Language stats breakdown -->
    <g transform="translate(290, 50)">
      <circle cx="6" cy="5" r="3" fill="#A78BFA" />
      <text x="15" y="8" font-family="sans-serif" font-size="10.5" fill="#CBD5E1">Python 86%</text>

      <circle cx="6" cy="22" r="3" fill="#22D3EE" />
      <text x="15" y="25" font-family="sans-serif" font-size="10.5" fill="#CBD5E1">Shell 14%</text>
    </g>

    <!-- Donut chart -->
    <g transform="translate(415, 72)">
      <circle cx="0" cy="0" r="23" fill="none" stroke="#1E293B" stroke-width="6" />
      <circle cx="0" cy="0" r="23" fill="none" stroke="#A78BFA" stroke-width="6"
              stroke-dasharray="124.3 144.5" stroke-dashoffset="36.1" transform="rotate(-90)" />
      <circle cx="0" cy="0" r="23" fill="none" stroke="#22D3EE" stroke-width="6"
              stroke-dasharray="20.2 144.5" stroke-dashoffset="-88.2" transform="rotate(-90)" />
      <text x="0" y="4" font-family="sans-serif" font-size="11" font-weight="bold" fill="#F8FAFC" text-anchor="middle">86%</text>
    </g>
  </g>
</svg>
